<svg width="321" height="137" viewBox="0 0 321 137" fill="none" xmlns="http://www.w3.org/2000/svg">
<g clip-path="url(#clip0_5_17)">
<path fill-rule="evenodd" clip-rule="evenodd" d="M105.502 43.4378C89.8249 33.6944 79.3761 31.4686 68.1753 31.4686C61.9567 31.4686 54.9905 33.1357 53.9919 39.8187C53.246 45.6619 58.2235 47.0551 68.6754 49.5675C87.8347 54.0174 107.243 59.8678 109.728 81.8631L120.185 24.2268L105.502 43.4378ZM249.836 45.1085L278.447 3.89842H321L260.783 83.2565L251.824 132.818H215.497L225.695 77.4098L207.035 41.4877L182.651 71.2837L215.497 132.818H171.702L146.063 81.5859L137.351 132.818H100.524L105.749 103.305C95.794 128.643 77.1367 137 51.7574 137C30.357 137 10.696 129.757 0 116.668L20.1527 90.2153C28.8617 99.6844 42.2991 104.695 56.4824 104.695C66.4342 104.695 72.4069 100.523 72.6544 94.9483C72.9036 85.484 58.2235 84.0906 44.7861 79.9186C29.6077 75.1821 13.434 63.768 17.6639 39.8187C20.9003 21.4386 35.5787 0 72.9036 0C93.8075 0 109.234 5.28801 121.925 15.3143L123.91 3.89842H160.747L150.041 59.8678L193.349 3.89842H229.93L249.836 45.1085Z" fill="#E30609"/>
</g>
<defs>
<clipPath id="clip0_5_17">
<rect width="321" height="137" fill="white"/>
</clipPath>
</defs>
</svg>
