<?xml version="1.0" encoding="utf-8"?>
<!-- Generator: Adobe Illustrator 26.3.1, SVG Export Plug-In . SVG Version: 6.00 Build 0)  -->
<svg version="1.1" id="Layer_1" xmlns="http://www.w3.org/2000/svg" xmlns:xlink="http://www.w3.org/1999/xlink" x="0px" y="0px"
	 viewBox="0 0 252 252" style="enable-background:new 0 0 252 252;" xml:space="preserve">
<style type="text/css">
	.st0{fill:#8533AD;}
	.st1{fill:#A178B5;}
	.st2{fill:#461E5F;}
	.st3{fill:#660099;}
	.st4{fill:#CD1E5A;}
	.st5{fill:#F06496;}
	.st6{fill:#FA6423;}
	.st7{fill:#FAB437;}
</style>
<g>
	<path class="st0" d="M250,223.3H2.8L26.7,184c1.4-2.3,3.9-3.7,6.6-3.7h186.2c2.7,0,5.2,1.4,6.6,3.7L250,223.3z"/>
	<polygon class="st1" points="3.8,221.8 2.8,223.3 250,223.3 249.1,221.8 	"/>
	<g>
		<path class="st0" d="M220.5,180.4H32.3c-1.8,0-3.3-1.5-3.3-3.3V59.4c0-1.8,1.5-3.3,3.3-3.3h188.3c1.8,0,3.3,1.5,3.3,3.3v117.7
			C223.8,178.9,222.4,180.4,220.5,180.4z"/>
	</g>
	<path class="st2" d="M214.7,172.6H38.2c-0.7,0-1.2-0.5-1.2-1.2V66.1c0-0.7,0.5-1.2,1.2-1.2h176.5c0.7,0,1.2,0.5,1.2,1.2v105.3
		C215.8,172.1,215.3,172.6,214.7,172.6z"/>
	<path class="st3" d="M247.2,230.9H5.6c-1.6,0-2.8-1.3-2.8-2.8v-4.8H250v4.8C250,229.7,248.8,230.9,247.2,230.9z"/>
	<polygon class="st3" points="229.1,202.3 217.4,183.3 34.2,183.3 22.6,202.3 	"/>
	<polygon class="st3" points="147.4,219 142.2,205.4 109.5,205.4 104.2,219 	"/>
</g>
<g>
	<path class="st4" d="M171.7,115.1l-18.4-23c-1.5-1.8-4.2-1.8-5.6,0.1l-18,23.4c-1,1.4-0.1,3.3,1.6,3.3l9.8-0.1c1.1,0,2,0.9,2,2
		l0.1,28.2c0,4.2,3.5,7.6,7.6,7.6c4.2,0,7.6-3.5,7.6-7.6l0-28.3c0-1.1,0.9-2,2-2l9.8-0.1C171.8,118.4,172.8,116.5,171.7,115.1
		L171.7,115.1z"/>
	<path class="st4" d="M129.2,111.8h4v4.9h-4V111.8z"/>
	<path class="st4" d="M168.1,111.5h4v4.9h-4V111.5z"/>
	<path class="st5" d="M171.7,110.2l-18.4-23.1c-1.5-1.8-4.2-1.8-5.6,0.1l-18,23.4c-1,1.4-0.1,3.3,1.6,3.3l9.8-0.1c1.1,0,2,0.9,2,2
		l0.1,28.2c0,4.2,3.5,7.6,7.6,7.6c4.2,0,7.6-3.5,7.6-7.6l0-28.3c0-1.1,0.9-2,2-2l9.8-0.1C171.8,113.5,172.7,111.5,171.7,110.2
		L171.7,110.2z"/>
	<path class="st6" d="M80,132.1l18.4,23.1c1.5,1.8,4.2,1.8,5.6-0.1l18-23.4c1.1-1.5,0.1-3.3-1.6-3.3l-9.8,0.1c-1.1,0-2-0.9-2-2
		l-0.1-28.2c0-4.2-3.5-7.6-7.6-7.6c-4.2,0-7.6,3.5-7.6,7.6l0.1,28.2c0,1.1-0.9,2-2,2l-9.8,0.1C79.8,128.8,78.9,130.7,80,132.1z"/>
	<path class="st6" d="M122.4,130.4h-4v-5.1h4V130.4z"/>
	<path class="st6" d="M83.5,130.9h-4v-5.4h4V130.9z"/>
	<path class="st7" d="M80,126.8l18.4,23.1c1.5,1.8,4.2,1.8,5.6-0.1l18-23.4c1-1.4,0.1-3.3-1.6-3.3l-9.8,0.1c-1.1,0-2-0.9-2-2
		L108.5,93c0-4.2-3.5-7.6-7.6-7.6c-4.2,0-7.6,3.5-7.6,7.6l0.1,28.2c0,1.1-0.9,2-2,2l-9.8,0.1C79.8,123.5,78.9,125.5,80,126.8z"/>
	<g>
		<path class="st5" d="M125.3,22.1C112,22.1,99.9,27.4,91,36c-1.3,1.3-1.4,3.3-0.1,4.5c1.2,1.2,3.2,1.3,4.4,0.1
			c7.7-7.5,18.3-12.2,29.9-12.2c11.6,0,22.2,4.7,29.9,12.2c1.2,1.2,3.2,1.1,4.4-0.1c1.3-1.3,1.2-3.3-0.1-4.5
			C150.6,27.4,138.6,22.1,125.3,22.1L125.3,22.1z"/>
		<path class="st5" d="M125.3,36.7c-9.3,0-17.7,3.7-23.9,9.7c-1.3,1.2-1.3,3.3,0,4.5c1.2,1.2,3.2,1.3,4.4,0.1
			c5.1-4.9,12-7.9,19.6-7.9s14.5,3,19.6,7.9c1.3,1.2,3.2,1.2,4.4-0.1c1.3-1.3,1.3-3.3,0-4.5C142.9,40.4,134.5,36.7,125.3,36.7
			L125.3,36.7z"/>
		<path class="st5" d="M125.3,51.7c-5.2,0-9.7,2-13.2,5.2c-1.4,1.2-1.4,3.3-0.1,4.5c1.2,1.2,3.2,1.2,4.4,0.1c2.4-2.1,5.6-3.5,9-3.5
			c3.4,0,6.6,1.4,9,3.5c1.3,1.2,3.2,1.2,4.4-0.1c1.2-1.3,1.2-3.3-0.1-4.5C135,53.7,130.4,51.7,125.3,51.7L125.3,51.7z"/>
		<path class="st5" d="M125.3,77.2c2.6,0,4.8-2.1,4.8-4.8c0-2.6-2.1-4.8-4.8-4.8c-2.6,0-4.8,2.1-4.8,4.8
			C120.5,75.1,122.6,77.2,125.3,77.2z"/>
	</g>
</g>
</svg>
