<svg version="1.1" id="Layer_1" xmlns="http://www.w3.org/2000/svg" x="0" y="0" viewBox="0 0 108 108" xml:space="preserve"><style>.st0{fill:#461e5f}.st1{fill:#609}.st4{fill:#f90}</style><path class="st0" d="M67.1 107.3H32.2c-.6 0-1-.5-1-1v-1.9c0-.6.5-1 1-1h34.9c.6 0 1 .5 1 1v1.9c.1.5-.4 1-1 1z"/><path class="st1" d="M44.5 87.9h17.3v16.3H44.5z"/><path class="st0" d="M44.5 87.8H41v16.3h3.5v-7.4c0-1.8 1.4-3.2 3.2-3.2h14.2v-5.8H44.5z"/><path class="st1" d="M70.7 107.3h-35c-.6 0-1-.5-1-1v-1.9c0-.6.5-1 1-1h34.9c.6 0 1 .5 1 1v1.9c.1.5-.4 1-.9 1z"/><path class="st0" d="M90.2 12.6H8c-4 0-7.2 3.2-7.2 7.2v63.1c0 4 3.2 7.2 7.2 7.2h82.2c4 0 7.2-3.2 7.2-7.2V19.8c0-4-3.2-7.2-7.2-7.2z"/><path d="M94 12.6H11.8c-4 0-7.2 3.2-7.2 7.2v63.1c0 4 3.2 7.2 7.2 7.2H94c4 0 7.2-3.2 7.2-7.2V19.8c0-4-3.2-7.2-7.2-7.2z" fill="#8533ad"/><path class="st1" d="M94 12.6H11.8c-4 0-7.2 3.2-7.2 7.2v57.4h96.6V19.8c0-4-3.2-7.2-7.2-7.2z"/><circle class="st1" cx="52.9" cy="83.9" r="2.4"/><g><path d="M31 61.2c-.5-2.1-.7-4.3-.5-6.6.7-10.8 9.8-19.6 20.7-20.1C63.5 34 73.7 43.8 73.7 56c0 1.7-.2 3.4-.6 5.1-.6 2.5.5 5.1 2.9 6.2 3.1 1.5 6.8-.3 7.5-3.6.7-3.2 1.1-6.6.8-10.1C83 37.6 70 24.8 54 23.7 35.2 22.5 19.6 37.5 19.6 56c0 2.7.3 5.2 1 7.7.8 3.3 4.5 5 7.5 3.5 2.3-1 3.5-3.5 2.9-6z" fill="#eb3d7d"/><circle class="st4" cx="52" cy="56.1" r="3.2"/><path class="st4" d="M69.9 38.8c-.1 0-.3 0-.4-.1-.2-.2-.2-.5 0-.7l3.2-3.2c.2-.2.5-.2.7 0 .2.2.2.5 0 .7l-3.2 3.2c-.1 0-.2.1-.3.1zm-35.8 0c-.1 0-.3 0-.4-.1l-3.2-3.2c-.2-.2-.2-.5 0-.7.2-.2.5-.2.7 0l3.2 3.2c.2.2.2.5 0 .7-.1 0-.2.1-.3.1zM52 31.3c-.3 0-.5-.2-.5-.5v-4.5c0-.3.2-.5.5-.5s.5.2.5.5v4.5c0 .3-.2.5-.5.5zm29.8 25.3h-4.5c-.3 0-.5-.2-.5-.5s.2-.5.5-.5h4.5c.3 0 .5.2.5.5s-.2.5-.5.5zm-55.1 0h-4.5c-.3 0-.5-.2-.5-.5s.2-.5.5-.5h4.5c.3 0 .5.2.5.5s-.2.5-.5.5zM75.3 46.7c-.2 0-.4-.1-.5-.3-.1-.3 0-.5.3-.7l2.1-1c.3-.1.5 0 .7.3.1.3 0 .5-.3.7l-2.1 1h-.2zM42.1 33.4c-.2 0-.4-.1-.5-.3l-1-2.1c-.1-.3 0-.5.3-.7.3-.1.5 0 .7.3l1 2.1c.1.3 0 .5-.3.7h-.2zM28.7 46.8h-.2l-2.1-1c-.3-.1-.4-.4-.3-.7.1-.3.4-.4.7-.3l2.1 1c.3.1.4.4.3.7-.1.2-.3.3-.5.3zm33.1-13.4h-.2c-.3-.1-.4-.4-.3-.7l1-2.1c.1-.3.4-.4.7-.3.3.1.4.4.3.7l-1 2.1c-.2.2-.3.3-.5.3z"/><path d="M54.6 52.7c-.6-.7-.6-1.8.1-2.5l13-11.1c.2-.2.5.1.3.3L56.9 52.7c-.6.6-1.7.7-2.3 0z" fill="#fadb4f"/></g></svg>