<?xml version="1.0" encoding="utf-8"?>
<!-- Generator: Adobe Illustrator 26.3.1, SVG Export Plug-In . SVG Version: 6.00 Build 0)  -->
<svg version="1.1" id="Layer_1" xmlns="http://www.w3.org/2000/svg" xmlns:xlink="http://www.w3.org/1999/xlink" x="0px" y="0px"
	 viewBox="0 0 320 320" style="enable-background:new 0 0 320 320;" xml:space="preserve">
<style type="text/css">
	.st0{fill-rule:evenodd;clip-rule:evenodd;fill:#660099;}
	.st1{fill-rule:evenodd;clip-rule:evenodd;fill:#8533AD;}
	.st2{opacity:0.2;fill-rule:evenodd;clip-rule:evenodd;fill:#14001F;enable-background:new    ;}
	.st3{fill-rule:evenodd;clip-rule:evenodd;fill:#EB3D7D;}
	.st4{fill-rule:evenodd;clip-rule:evenodd;fill:#FAB538;}
	.st5{fill-rule:evenodd;clip-rule:evenodd;fill:#F596B4;}
</style>
<g id="Ícones_x2F_Smartphones_x2F_Apps-Variados">
	<g id="Group" transform="translate(-0.000202, 1.999398)">
		<path id="Cor-do-smartphone" class="st0" d="M162.8,26.4c0-14.6-11.9-26.4-26.5-26.4H36.5c-1.3,0-2.5,0.1-3.7,0.3h-6.3
			C11.8,0.3,0,12.2,0,26.8l0.1,262.6c0,14.6,11.9,26.4,26.5,26.4h109.9c14.6,0,26.4-12.2,26.4-26.8L162.8,26.4z"/>
		<path id="Cor-da-tela" class="st1" d="M134.4,11.8h-9.8c-1.6,0-2.9,1.3-2.9,2.9v4.1c0,3.1-2.5,5.7-5.7,5.7H56.4
			c-3.1,0-5.7-2.5-5.7-5.7v-4.1c0-1.6-1.3-2.9-2.9-2.9H38c-10.8,0-19.5,8.7-19.5,19.5l0.1,252.9c0,10.8,8.8,19.5,19.5,19.5h96.2
			c10.8,0,19.5-8.8,19.5-19.5l-0.1-252.9C153.9,20.5,145.2,11.8,134.4,11.8"/>
		<path id="sombra" class="st2" d="M32.7,0.3C19.9,2.1,10,13.1,10,26.5l0,0l0.1,262.6c0,14.6,11.9,26.4,26.5,26.4l0,0l-10,0.3
			C12,315.8,0.1,304,0.1,289.4l0,0L0,26.8C0,12.2,11.8,0.3,26.4,0.3l0,0H32.7z M94.4,14.4c0.4,0,0.8,0.3,0.8,0.8
			c0,0.4-0.3,0.8-0.8,0.8l0,0H77.6c-0.4,0-0.8-0.3-0.8-0.8c0-0.4,0.3-0.8,0.8-0.8l0,0H94.4z M101.1,14.4c0.4,0,0.8,0.3,0.8,0.8
			c0,0.4-0.3,0.8-0.8,0.8l0,0H99c-0.4,0-0.8-0.3-0.8-0.8c0-0.4,0.3-0.8,0.8-0.8l0,0H101.1z"/>
	</g>
	<path id="Cor-dos-apps" class="st3" d="M110,169c11,0,20,9,20,20v55c0,11-9,20-20,20H55c-11,0-20-9-20-20v-55c0-11,9-20,20-20H110z
		 M225,54c11,0,20,9,20,20v55c0,11-9,20-20,20h-55c-11,0-20-9-20-20V74c0-11,9-20,20-20H225z"/>
	<path id="Cor-dos-ícones" class="st4" d="M88.5,228.8c0.4,0.1,0.8,0.3,1.1,0.4c-2.3,3.4-5.2,6.3-8.2,8.4l-0.5,0.3l-0.8,0.5
		c-1.9-0.2-3.8-0.7-5.7-1.4c-2.4-0.9-4.5-2.2-6.3-3.8c4.5-0.2,8.3-1.7,11.3-2.9C82.8,229.1,85.8,227.9,88.5,228.8z M92.5,230.7
		c1.9,1.4,2.4,2.9,2.6,3.7v0.1l0.1,0.3c-2.9,1.9-6.2,3.1-9.6,3.5C88.1,236.3,90.4,233.7,92.5,230.7z M96.3,223.7
		c2.4,0.6,4.7,1.1,7.1,1.6c-1.3,2.9-3.2,5.5-5.5,7.5c-0.5-1.4-1.5-3.2-3.7-4.8C94.9,226.7,95.7,225.2,96.3,223.7z M61.7,207.2
		c6.5,5,14.5,9.4,23.1,12.8c2.8,1.1,5.6,2,8.4,2.9c-0.5,1.2-1.2,2.4-1.8,3.6c-0.6-0.3-1.2-0.5-1.9-0.7c-3.9-1.2-7.5,0.2-11.3,1.7
		c-3.4,1.4-7.3,2.9-12.1,2.7h-0.5l-0.7-0.1c-4.9-6.1-6.5-14.6-3.4-22.4C61.6,207.5,61.7,207.4,61.7,207.2z M105.4,214.8
		c0.1,2.3-0.1,4.7-0.7,7l-0.2,0.5h-0.1c-2.3-0.4-4.6-0.9-6.9-1.5c0.5-1.5,1-3.1,1.3-4.7C102,216.5,104.2,215.6,105.4,214.8z
		 M77.3,193.9l0.6,0.4c4.9,3.2,7,7.6,8.9,11.5c1.8,3.7,3.4,7.2,7.1,8.9c0.4,0.2,0.8,0.3,1.2,0.5c0.2,0.1,0.5,0.2,0.7,0.3
		c-0.3,1.5-0.8,3.1-1.3,4.5c-2.8-0.8-5.6-1.8-8.4-2.9c-8.3-3.2-15.9-7.4-22.1-12.1l-0.7-0.5l-0.1-0.1
		C66.3,199,71.5,195.3,77.3,193.9z M99.1,200.2c2.8,2.9,4.7,6.5,5.7,10.4l0.1,0.5l-0.3,0.2c-0.1,0.1-0.3,0.2-0.4,0.3
		s-1.5,1.8-4.9,1.4C100,208.6,99.9,204.2,99.1,200.2z M91,194.8c1.2,0.5,2.3,1,3.4,1.7l0.5,0.3l0.3,0.9c1.5,4.4,1.9,9.4,1.1,14.6
		c-0.4-0.1-0.7-0.3-1.1-0.5c-2.6-1.2-4-4.1-5.6-7.4c-1.6-3.4-3.7-7.7-7.9-11.2C84.8,193.1,87.9,193.6,91,194.8z M197.4,79.7
		c0.6-0.5,1.4-0.5,2,0c3.1,2.7,5.4,6.6,6.7,11.2c3.5-3.4,7.5-5.6,11.4-6.4c0.7-0.1,1.5,0.3,1.7,1c1.3,3.9,1.4,8.4,0.2,13.1
		c4.7-1.2,9.3-1.1,13.1,0.2c0.7,0.2,1.1,1,1,1.7c-1.3,6.5-6.4,13-13.8,17.2c-5,2.9-10.4,4.4-15.2,4.4c-2.1,0-4.2-0.3-6.1-0.9
		c-1.9,0.6-3.9,0.9-6.1,0.9c-4.9,0-10.2-1.5-15.2-4.4c-7.4-4.3-12.5-10.7-13.8-17.2c-0.1-0.7,0.3-1.5,1-1.7
		c3.8-1.3,8.4-1.4,13.1-0.2c-1.2-4.7-1.1-9.2,0.2-13.1c0.2-0.7,1-1.1,1.7-1c3.9,0.8,7.9,3,11.4,6.4C192,86.3,194.3,82.3,197.4,79.7z
		 M230.2,101.3c-3.4-0.8-7.6-0.6-11.8,0.8c-0.3,0.9-0.7,1.8-1.1,2.7v0.1c-0.2,0.4-0.4,0.8-0.6,1.2c-0.2,0.4-0.5,0.9-0.7,1.3
		c-0.3,0.6-0.7,1.1-1.1,1.7c-0.1,0.2-0.2,0.3-0.3,0.5c-0.3,0.4-0.6,0.9-0.9,1.3c-0.1,0.1-0.2,0.2-0.2,0.3c-0.4,0.5-0.8,1-1.2,1.5
		c-0.1,0.1-0.2,0.2-0.3,0.3c-0.3,0.4-0.7,0.7-1,1.1c-0.1,0.1-0.2,0.2-0.4,0.4c-0.4,0.4-0.9,0.9-1.3,1.3c-0.1,0.1-0.1,0.1-0.2,0.2
		c-0.4,0.3-0.8,0.7-1.2,1c-0.1,0.1-0.3,0.2-0.4,0.3c-0.4,0.3-0.8,0.6-1.2,0.9c-0.1,0.1-0.2,0.1-0.2,0.2c-0.5,0.3-1,0.6-1.4,0.9
		c-0.1,0-0.1,0.1-0.2,0.1c4.4,0,9.3-1.4,13.9-4C224.2,111.6,228.7,106.4,230.2,101.3z M178.4,102.1c-4.2-1.3-8.4-1.6-11.8-0.8
		c1.5,5.2,6,10.4,12,13.8c4.5,2.6,9.4,4,13.8,4l0,0h0.1c-0.1,0-0.1-0.1-0.2-0.1c-0.5-0.3-1-0.6-1.4-0.9c-0.1-0.1-0.2-0.1-0.2-0.2
		c-0.4-0.3-0.8-0.6-1.2-0.9c-0.1-0.1-0.3-0.2-0.4-0.3c-0.4-0.3-0.8-0.7-1.2-1c-0.1,0-0.1-0.1-0.2-0.1c-0.5-0.4-0.9-0.8-1.3-1.3
		c-0.1-0.1-0.2-0.2-0.3-0.4c-0.3-0.4-0.7-0.7-1-1.1c-0.1-0.1-0.2-0.2-0.3-0.3c-0.4-0.5-0.8-1-1.2-1.5c-0.1-0.1-0.2-0.2-0.2-0.3
		c-0.3-0.4-0.6-0.9-0.9-1.3c-0.1-0.2-0.2-0.3-0.3-0.5c-0.4-0.6-0.7-1.1-1.1-1.7c-0.3-0.4-0.5-0.9-0.7-1.3s-0.4-0.8-0.6-1.2v-0.1
		C179.1,103.8,178.7,102.9,178.4,102.1z M198.4,82.9c-2.7,2.8-4.6,7-5.5,11.7c-0.1,0.3-0.1,0.6-0.2,0.9c0,0.2,0,0.3-0.1,0.5
		c0,0.3-0.1,0.6-0.1,0.9c0,0.2,0,0.3-0.1,0.5c0,0.3-0.1,0.7-0.1,1c0,0.1,0,0.3,0,0.4c0,0.5,0,0.9,0,1.4s0,0.9,0,1.4
		c0,0.2,0,0.3,0,0.5c0,0.3,0,0.6,0.1,0.9c0,0.2,0,0.4,0.1,0.5c0,0.3,0.1,0.5,0.1,0.8c0,0.2,0.1,0.4,0.1,0.5c0,0.3,0.1,0.5,0.1,0.8
		c0,0.2,0.1,0.4,0.1,0.5c0,0.2,0.1,0.5,0.1,0.7s0.1,0.4,0.1,0.5c0.1,0.2,0.1,0.5,0.2,0.7c0,0.2,0.1,0.3,0.1,0.5
		c0.1,0.2,0.1,0.5,0.2,0.7c0.1,0.2,0.1,0.3,0.2,0.5c0.1,0.2,0.2,0.5,0.2,0.7c0.1,0.2,0.1,0.3,0.2,0.5c0.1,0.2,0.2,0.5,0.3,0.7
		c0.1,0.1,0.1,0.3,0.2,0.4c0.1,0.2,0.2,0.5,0.3,0.7c0,0,0,0.1,0.1,0.1l0,0l0.1,0.3c0.1,0.2,0.2,0.4,0.4,0.7c0.1,0.1,0.2,0.3,0.2,0.4
		c0.1,0.2,0.2,0.4,0.3,0.6s0.2,0.3,0.3,0.5s0.2,0.3,0.3,0.5s0.2,0.3,0.3,0.4l0.1,0.1c0.1,0.1,0.2,0.2,0.3,0.3
		c0.1,0.1,0.2,0.3,0.3,0.4l0.1,0.1c0.1,0.1,0.2,0.2,0.3,0.3l0,0c0.1-0.1,0.2-0.2,0.3-0.3c0.1-0.1,0.2-0.2,0.3-0.3
		c0.1-0.2,0.3-0.4,0.4-0.5c0.1-0.1,0.2-0.2,0.2-0.3c0.2-0.2,0.3-0.5,0.5-0.7c0.1-0.1,0.1-0.1,0.2-0.2c0.2-0.3,0.4-0.6,0.6-1
		c0-0.1,0.1-0.2,0.1-0.3c0.1-0.2,0.3-0.5,0.4-0.8c0.1-0.1,0.1-0.3,0.2-0.4c0.1-0.2,0.2-0.4,0.3-0.7c0.1-0.1,0.1-0.3,0.2-0.4
		c0.1-0.2,0.2-0.4,0.3-0.7c0.1-0.2,0.1-0.3,0.2-0.5c0.1-0.2,0.2-0.4,0.2-0.7c0.1-0.2,0.1-0.3,0.2-0.5c0.1-0.2,0.1-0.5,0.2-0.7
		c0-0.2,0.1-0.4,0.1-0.5c0.1-0.2,0.1-0.5,0.2-0.7c0-0.2,0.1-0.4,0.1-0.5c0.1-0.2,0.1-0.5,0.1-0.7s0.1-0.4,0.1-0.5
		c0-0.2,0.1-0.5,0.1-0.8c0-0.2,0.1-0.4,0.1-0.5c0-0.3,0.1-0.5,0.1-0.8c0-0.2,0-0.3,0.1-0.5c0-0.3,0-0.6,0.1-0.9c0-0.2,0-0.3,0-0.5
		c0-0.4,0-0.9,0-1.4s0-0.9,0-1.4c0-0.1,0-0.3,0-0.4c0-0.3,0-0.7-0.1-1c0-0.2,0-0.3-0.1-0.5c0-0.3-0.1-0.6-0.1-0.9
		c0-0.2,0-0.3-0.1-0.5c0-0.3-0.1-0.6-0.2-0.9C203,89.9,201.1,85.7,198.4,82.9z M216.8,87.8c-3.4,1-6.9,3.3-9.9,6.6
		c0.2,0.9,0.3,1.9,0.4,2.9v0.1c0,0.4,0.1,0.9,0.1,1.3c0,0.5,0,1,0,1.5c0,0.7,0,1.3-0.1,2c0,0.2,0,0.4,0,0.5c0,0.5-0.1,1.1-0.1,1.6
		c0,0.1,0,0.3,0,0.4c-0.1,0.6-0.2,1.3-0.3,1.9c0,0.2-0.1,0.3-0.1,0.4c-0.1,0.5-0.2,1-0.3,1.5c0,0.2-0.1,0.3-0.1,0.5
		c-0.2,0.6-0.3,1.2-0.5,1.8c0,0.1-0.1,0.1-0.1,0.2c-0.2,0.5-0.4,1-0.6,1.5c-0.1,0.2-0.1,0.3-0.2,0.5c-0.2,0.5-0.4,0.9-0.6,1.4
		c0,0.1-0.1,0.2-0.1,0.2c-0.3,0.5-0.5,1-0.8,1.5c0,0,0,0.1-0.1,0.1l0,0l0,0c0.4-0.2,0.8-0.5,1.3-0.8c0.1-0.1,0.2-0.2,0.3-0.2
		c0.3-0.2,0.6-0.5,1-0.7c0.1-0.1,0.2-0.2,0.3-0.3c0.4-0.3,0.8-0.7,1.2-1c0.1,0,0.1-0.1,0.2-0.1c0.3-0.3,0.7-0.6,1-1
		c0.1-0.1,0.2-0.2,0.3-0.3c0.3-0.3,0.6-0.6,0.9-1c0.1-0.1,0.2-0.2,0.2-0.3c0.4-0.4,0.7-0.9,1-1.3c0.1-0.1,0.2-0.2,0.2-0.3
		c0.3-0.4,0.5-0.7,0.8-1.1c0.1-0.1,0.2-0.3,0.3-0.4c0.3-0.5,0.6-1,0.9-1.5c0.2-0.4,0.5-0.8,0.7-1.2c0.1-0.1,0.1-0.2,0.2-0.4
		c0.2-0.3,0.3-0.6,0.4-0.9c0.1-0.1,0.1-0.3,0.2-0.4c0.1-0.3,0.3-0.6,0.4-0.9l0,0l0.2-0.4c0.1-0.3,0.2-0.6,0.3-0.9
		C217.3,96.1,217.7,91.6,216.8,87.8z M180,87.8c-0.9,3.8-0.5,8.3,1.1,12.8c0.1,0.3,0.2,0.6,0.3,0.9c0.1,0.1,0.1,0.3,0.2,0.4
		c0.1,0.3,0.3,0.6,0.4,0.9c0.1,0.1,0.1,0.3,0.2,0.4c0.1,0.3,0.3,0.6,0.4,0.9c0.1,0.1,0.1,0.2,0.2,0.4c0.2,0.4,0.4,0.8,0.7,1.2
		c0.3,0.5,0.6,1,0.9,1.5c0.1,0.1,0.2,0.3,0.3,0.4c0.3,0.4,0.5,0.7,0.8,1.1c0.1,0.1,0.2,0.2,0.2,0.3c0.3,0.4,0.7,0.9,1,1.3
		c0.1,0.1,0.2,0.2,0.2,0.3c0.3,0.3,0.6,0.7,0.9,1c0.1,0.1,0.2,0.2,0.3,0.4c0.3,0.3,0.7,0.7,1,1c0.1,0,0.1,0.1,0.2,0.2
		c0.4,0.4,0.8,0.7,1.2,1c0.1,0.1,0.2,0.2,0.3,0.3c0.3,0.2,0.6,0.5,1,0.7c0.1,0.1,0.2,0.2,0.3,0.2c0.4,0.3,0.8,0.5,1.3,0.8l0,0
		l-0.1-0.1c-0.3-0.5-0.6-1-0.8-1.5c0-0.1-0.1-0.2-0.1-0.2c-0.2-0.4-0.4-0.9-0.6-1.4c-0.1-0.2-0.1-0.3-0.2-0.5
		c-0.2-0.5-0.4-1-0.6-1.5c0-0.1-0.1-0.1-0.1-0.2c-0.2-0.6-0.4-1.2-0.5-1.8c0-0.2-0.1-0.3-0.1-0.5c-0.1-0.5-0.2-1-0.3-1.5l0,0
		l-0.1-0.4c-0.1-0.6-0.2-1.2-0.3-1.9c0-0.1,0-0.3,0-0.4c-0.1-0.5-0.1-1.1-0.2-1.6c0-0.2,0-0.4,0-0.5c0-0.7-0.1-1.3-0.1-2
		c0-0.5,0-1,0-1.5s0-0.9,0.1-1.3v-0.1c0.1-1,0.2-1.9,0.4-2.9C186.9,91.2,183.4,88.8,180,87.8z"/>
	<path id="Cor-dos-apps_1_" class="st5" d="M225,169c11,0,20,9,20,20v55c0,11-9,20-20,20h-55c-11,0-20-9-20-20v-55c0-11,9-20,20-20
		H225z M110,54c11,0,20,9,20,20v55c0,11-9,20-20,20H55c-11,0-20-9-20-20V74c0-11,9-20,20-20H110z"/>
	<path id="Cor-dos-ícones_1_" class="st1" d="M228.3,197.8c-20.6-7.9-41.1,8.7-61.6,0.8c-0.6-0.2-1.1,0.1-1.1,0.6v39
		c0,0.6,0.5,1.2,1.1,1.5c20.6,7.9,41.1-8.7,61.6-0.8c0.6,0.2,1.1-0.1,1.1-0.6v-39C229.3,198.7,228.8,198,228.3,197.8z M175.2,238.8
		c0,0.3-0.2,0.5-0.5,0.5c-1.8-0.2-3.6-0.5-5.3-1.1c-0.3-0.1-0.5-0.4-0.5-0.7v-3c0-0.3,0.2-0.5,0.5-0.4c1.8,0.5,3.6,0.8,5.3,1.1
		c0.3,0.1,0.5,0.3,0.5,0.6C175.2,235.8,175.2,238.8,175.2,238.8z M175.2,206.5c0,0.3-0.2,0.5-0.5,0.5c-1.8-0.2-3.6-0.5-5.3-1.1
		c-0.3-0.1-0.5-0.4-0.5-0.7v-3c0-0.3,0.2-0.5,0.5-0.4c1.8,0.5,3.6,0.8,5.3,1.1c0.3,0.1,0.5,0.3,0.5,0.6V206.5z M185.4,238.5
		c0,0.3-0.2,0.6-0.5,0.6c-1.8,0.2-3.6,0.3-5.3,0.4c-0.3,0-0.5-0.2-0.5-0.5v-3c0-0.3,0.2-0.5,0.5-0.5c1.8,0,3.6-0.1,5.3-0.4
		c0.3-0.1,0.5,0.2,0.5,0.5V238.5z M185.4,206.2c0,0.3-0.2,0.6-0.5,0.6c-1.8,0.2-3.6,0.3-5.3,0.4c-0.3,0-0.5-0.2-0.5-0.5v-3
		c0-0.3,0.2-0.5,0.5-0.5c1.8,0,3.6-0.1,5.3-0.4c0.3-0.1,0.5,0.2,0.5,0.5C185.4,203.3,185.4,206.2,185.4,206.2z M195.6,236.8
		c0,0.3-0.2,0.6-0.5,0.7c-1.8,0.4-3.6,0.7-5.3,1c-0.3,0.1-0.5-0.2-0.5-0.5v-3c0-0.3,0.2-0.6,0.5-0.7c1.8-0.3,3.6-0.7,5.3-1
		c0.3-0.1,0.5,0.1,0.5,0.4C195.6,233.7,195.6,236.8,195.6,236.8z M195.6,204.5c0,0.3-0.2,0.6-0.5,0.7c-1.8,0.4-3.6,0.7-5.3,1
		c-0.4,0.1-0.6-0.1-0.6-0.4v-3c0-0.3,0.2-0.6,0.5-0.7c1.8-0.3,3.6-0.7,5.3-1c0.3-0.1,0.5,0.1,0.5,0.4
		C195.6,202.5,195.6,203.5,195.6,204.5z M205.8,234.7c0,0.3-0.2,0.6-0.5,0.7c-1.8,0.3-3.6,0.7-5.3,1c-0.3,0.1-0.5-0.1-0.5-0.4v-3
		c0-0.3,0.2-0.6,0.5-0.7c1.8-0.4,3.6-0.7,5.3-1c0.3-0.1,0.5,0.2,0.5,0.5C205.8,231.8,205.8,234.7,205.8,234.7z M205.8,202.4
		c0,0.3-0.2,0.6-0.5,0.7c-1.8,0.3-3.6,0.7-5.3,1c-0.3,0.1-0.5-0.1-0.5-0.4v-3c0-0.3,0.2-0.6,0.5-0.7c1.8-0.4,3.6-0.7,5.3-1
		c0.3-0.1,0.5,0.2,0.5,0.5C205.8,199.5,205.8,202.4,205.8,202.4z M216,233.7c0,0.3-0.2,0.5-0.5,0.5c-1.8,0-3.6,0.1-5.3,0.4
		c-0.3,0.1-0.5-0.2-0.5-0.5v-3c0-0.3,0.2-0.6,0.5-0.6c1.8-0.2,3.6-0.3,5.3-0.4c0.3,0,0.5,0.2,0.5,0.5V233.7z M216,201.5
		c0,0.3-0.2,0.5-0.5,0.5c-1.8,0-3.6,0.1-5.3,0.4c-0.3,0.1-0.5-0.2-0.5-0.5v-3c0-0.3,0.2-0.6,0.5-0.6c1.8-0.2,3.6-0.3,5.3-0.4
		c0.3,0,0.5,0.2,0.5,0.5V201.5z M226.2,235.2c0,0.3-0.2,0.5-0.5,0.4c-1.8-0.5-3.6-0.8-5.3-1.1c-0.3-0.1-0.5-0.3-0.5-0.6v-3
		c0-0.3,0.2-0.5,0.5-0.5c1.8,0.2,3.6,0.5,5.3,1.1c0.3,0.1,0.5,0.4,0.5,0.7C226.2,232.2,226.2,235.2,226.2,235.2z M226.2,202.9
		c0,0.3-0.2,0.5-0.5,0.4c-1.8-0.5-3.6-0.8-5.3-1.1c-0.3-0.1-0.5-0.3-0.5-0.6v-3c0-0.3,0.2-0.5,0.5-0.5c1.8,0.2,3.6,0.5,5.3,1.1
		c0.3,0.1,0.5,0.4,0.5,0.7V202.9z M198.4,207.1l2.1,6.4c0.1,0.4,0.5,0.7,0.9,0.7h6.7c0.9,0,1.2,1.1,0.5,1.7l-5.5,4
		c-0.3,0.2-0.5,0.7-0.4,1l2.1,6.4c0.3,0.8-0.7,1.5-1.4,1l-5.5-4c-0.3-0.2-0.8-0.2-1.1,0l-5.5,4c-0.7,0.5-1.7-0.2-1.4-1l2.1-6.4
		c0.1-0.4,0-0.8-0.4-1l-5.5-4c-0.7-0.5-0.4-1.7,0.5-1.7h6.7c0.4,0,0.8-0.2,0.9-0.7l2.1-6.4C196.9,206.3,198.1,206.3,198.4,207.1z
		 M46.8,119.8V81.6c0-1.8,1.5-3.3,3.3-3.3h63.3c1.8,0,3.3,1.5,3.3,3.3v38.2c0,1.8-1.5,3.3-3.3,3.3H50.1
		C48.3,123.1,46.8,121.6,46.8,119.8z M104,108.6l-1.1,1.6c-0.7,1.1-2.5,1.1-3.2,0l-9-12.7c-0.7-1-2.5-1-3.2,0l-12.7,17.9
		c-0.7,1-2.5,1-3.2,0l-7.8-11.8c-0.7-1.1-2.5-1.1-3.3,0L51,117.9c-0.6,0.9,0.2,2,1.3,2h59.7c1.2,0,1.9-1.1,1.3-2l-6.2-9.2
		C106.5,107.6,104.7,107.6,104,108.6z M104.9,83.1c3.8,0,6.8,3,6.8,6.8s-3,6.8-6.8,6.8s-6.8-3-6.8-6.8S101.1,83.1,104.9,83.1z"/>
</g>
</svg>
